<svg width="23" height="23" viewBox="0 0 23 23" fill="none" xmlns="http://www.w3.org/2000/svg">
<path d="M9.86222 3.699L1.74513 17.2498C1.57778 17.5397 1.48923 17.8682 1.48829 18.2029C1.48735 18.5376 1.57406 18.8667 1.73979 19.1574C1.90552 19.4482 2.14449 19.6905 2.43294 19.8602C2.72138 20.0299 3.04923 20.1212 3.38388 20.1248H19.618C19.9527 20.1212 20.2806 20.0299 20.569 19.8602C20.8574 19.6905 21.0964 19.4482 21.2621 19.1574C21.4279 18.8667 21.5146 18.5376 21.5136 18.2029C21.5127 17.8682 21.4242 17.5397 21.2568 17.2498L13.1397 3.699C12.9689 3.41735 12.7283 3.18449 12.4413 3.02288C12.1542 2.86127 11.8304 2.77637 11.501 2.77637C11.1716 2.77637 10.8477 2.86127 10.5607 3.02288C10.2736 3.18449 10.0331 3.41735 9.86222 3.699V3.699Z" fill="#E8215D"/>
<path d="M11.5 8.625V12.4583" stroke="white" stroke-width="2" stroke-linecap="round" stroke-linejoin="round"/>
<path d="M11.5 16.292H11.5096" stroke="white" stroke-width="2" stroke-linecap="round" stroke-linejoin="round"/>
</svg>
