<svg width="23" height="23" viewBox="0 0 23 23" fill="none" xmlns="http://www.w3.org/2000/svg">
<path d="M9.86222 3.69997L1.74513 17.2508C1.57778 17.5406 1.48923 17.8692 1.48829 18.2039C1.48735 18.5386 1.57406 18.8676 1.73979 19.1584C1.90552 19.4491 2.14449 19.6914 2.43294 19.8612C2.72138 20.0309 3.04923 20.1221 3.38388 20.1258H19.6181C19.9527 20.1221 20.2806 20.0309 20.569 19.8612C20.8574 19.6914 21.0964 19.4491 21.2621 19.1584C21.4279 18.8676 21.5146 18.5386 21.5136 18.2039C21.5127 17.8692 21.4242 17.5406 21.2568 17.2508L13.1397 3.69997C12.9689 3.41833 12.7283 3.18546 12.4413 3.02385C12.1542 2.86224 11.8304 2.77734 11.501 2.77734C11.1716 2.77734 10.8477 2.86224 10.5607 3.02385C10.2736 3.18546 10.0331 3.41833 9.86222 3.69997V3.69997Z" fill="#217CE8"/>
<path d="M11.5 8.625V12.4583" stroke="white" stroke-width="2" stroke-linecap="round" stroke-linejoin="round"/>
<path d="M11.5 16.291H11.5083" stroke="white" stroke-width="2" stroke-linecap="round" stroke-linejoin="round"/>
</svg>
