<svg width="23" height="23" viewBox="0 0 23 23" fill="none" xmlns="http://www.w3.org/2000/svg">
<g clip-path="url(#clip0)">
<path d="M23 4.36709C22.1538 4.74276 21.2443 4.99575 20.2898 5.1098C21.2645 4.52617 22.0129 3.60138 22.3646 2.4993C21.4532 3.0398 20.4432 3.43271 19.3679 3.64451C18.5083 2.72738 17.2807 2.1543 15.9237 2.1543C12.8771 2.1543 10.6385 4.99671 11.3265 7.94742C7.406 7.75096 3.92917 5.87263 1.60137 3.01776C0.365125 5.13855 0.96025 7.91292 3.06092 9.31784C2.2885 9.29292 1.56017 9.08113 0.924792 8.7275C0.873042 10.9135 2.43992 12.9585 4.70925 13.4138C4.04512 13.5939 3.31775 13.6361 2.57792 13.4943C3.17783 15.3688 4.92008 16.7325 6.98625 16.7708C5.0025 18.3262 2.50317 19.021 0 18.7258C2.08821 20.0646 4.56933 20.8456 7.2335 20.8456C15.9946 20.8456 20.9444 13.4463 20.6454 6.80988C21.5673 6.14384 22.3675 5.31296 23 4.36709V4.36709Z" fill="#E88C21"/>
</g>
<defs>
<clipPath id="clip0">
<rect width="23" height="23" fill="white"/>
</clipPath>
</defs>
</svg>
