<svg width="21" height="21" viewBox="0 0 21 21" fill="none" xmlns="http://www.w3.org/2000/svg">
<g clip-path="url(#clip0)">
<path d="M21 3.98717C20.2274 4.33017 19.397 4.56117 18.5255 4.6653C19.4154 4.13242 20.0987 3.28805 20.4199 2.2818C19.5877 2.7753 18.6655 3.13405 17.6837 3.32742C16.8989 2.49005 15.778 1.9668 14.539 1.9668C11.7574 1.9668 9.71338 4.56205 10.3416 7.25617C6.762 7.0768 3.5875 5.3618 1.46213 2.75517C0.333375 4.69155 0.87675 7.22467 2.79475 8.50742C2.0895 8.48467 1.4245 8.2913 0.844375 7.96842C0.797125 9.9643 2.22775 11.8315 4.29975 12.2472C3.69338 12.4117 3.02925 12.4502 2.35375 12.3207C2.9015 14.0322 4.49225 15.2773 6.37875 15.3123C4.5675 16.7324 2.2855 17.3668 0 17.0973C1.90662 18.3197 4.172 19.0328 6.6045 19.0328C14.6038 19.0328 19.1231 12.2769 18.8501 6.21755C19.6919 5.60942 20.4225 4.8508 21 3.98717V3.98717Z" fill="#808292"/>
</g>
<defs>
<clipPath id="clip0">
<rect width="21" height="21" fill="white"/>
</clipPath>
</defs>
</svg>
